<svg width="182" height="140" xmlns="http://www.w3.org/2000/svg">

 <g id="imagebot_4">
  <path stroke="#000000" stroke-width="2.994" fill="#ffffff" d="M 68.5302 136.563 L 39.0153 108.176 L 31.3105 44.4866 S 137.417 0.80912 159.125 12.0534 C 180.833 23.2966 179.322 41.2461 179.322 41.2461 L 179.123 94.2239 L 68.5302 136.563 Z" id="imagebot_14"/>
  <path fill-rule="evenodd" stroke="#000000" stroke-width="2.9315" fill="#ffffff" d="M 24.6961 110.129 L 24.6961 56.6546 S 23.6778 35.9625 46.4471 47.736 C 69.2286 59.5095 67.7073 78.4251 67.7073 78.4251 L 67.7073 134.239 L 24.6961 110.129 L 24.6961 110.129 Z" id="imagebot_13"/>
  <path transform="translate(4 8) matrix(1.2714 0 0 1.2714 -591.881 -30.5978)" fill-rule="evenodd" stroke="#000000" stroke-width="0.51378px" fill="#000000" d="M 528.7 98.424 L 528.7 49.501 L 560.62 39.908 L 560.62 60.053 L 535.31 68.686 L 535.31 98.424 S 533.1 107.06 528.7 98.424 Z" id="imagebot_12"/>
  <path stroke="#000000" stroke-width="1.9296" fill="none" d="M 65.656 69.4224 L 43.3806 77.81 L 57.1377 104.948 L 67.615 99.0262 L 65.656 69.4224 Z" id="imagebot_11"/>
  <path d="M 66.1437 80.1403 L 49.7005 87.55 L 59.8634 111.523 L 67.603 106.297 L 66.1437 80.1403 Z" fill-rule="evenodd" stroke="#000000" stroke-width="2.5" fill="#ffffff" id="imagebot_10"/>
  <title/>
  <path fill-rule="evenodd" stroke="#000000" stroke-width="4" fill="#ffffff" d="M 24.6634 114.99 L 4.96885 70.394 S -2.92955 54.1659 18.2667 64.9692 C 39.4514 75.7727 44.8278 90.4348 44.8278 90.4348 L 64.0523 134.013 L 24.6634 114.99 Z" id="imagebot_9"/>
  <path transform="translate(4 8) matrix(1.18828 0 0 1.03521 -548.758 0.797701)" fill-rule="evenodd" fill="#000000" d="M 480.12 87.649 S 480.97 95.239 486.03 96.926 S 496.15 95.239 496.15 95.239 S 491.93 95.239 486.87 92.709 S 481.81 87.649 480.12 87.649 Z" id="imagebot_8"/>
  <line transform="translate(4 8) matrix(1.24159 0 0 0.762651 -27.8315 10.9725)" id="imagebot_7" y2="94.212" x2="73.24" y1="91.652" x1="59.928" fill-opacity="null" stroke-opacity="null" stroke-linecap="null" stroke-linejoin="null" stroke-dasharray="null" stroke-width="2.5" stroke="#000000" fill="none"/>
  <line transform="translate(4 8) matrix(0.976187 0 0 0.9246 -7.48803 -5.4952)" id="imagebot_6" y2="83.972" x2="71.192" y1="80.9" x1="49.176" fill-opacity="null" stroke-opacity="null" stroke-linecap="null" stroke-linejoin="null" stroke-dasharray="null" stroke-width="2.5" stroke="#000000" fill="none"/>
  <line transform="translate(4 8) matrix(0.468717 0 0 0.428083 29.5315 61.7063)" id="imagebot_5" y2="87.81824" x2="50.59936" y1="91.7504" x1="43.06272" stroke-opacity="null" stroke-linecap="null" stroke-linejoin="null" stroke-dasharray="null" stroke="#000000" fill="none"/>
 </g>
 <metadata>image/svg+xmlOpenclipartMailbox 3 icon2006-12-26T00:00:00https://openclipart.org/detail/24649/-by--24649Anonymous</metadata>
</svg>